<?xml version="1.0" encoding="UTF-8" standalone="no"?>
<!-- Created with Inkscape (http://www.inkscape.org/) -->

<svg
   width="210mm"
   height="297mm"
   viewBox="0 0 210 297"
   version="1.1"
   id="svg21"
   inkscape:version="1.2.2 (b0a8486541, 2022-12-01)"
   sodipodi:docname="dibujo.svg"
   xmlns:inkscape="http://www.inkscape.org/namespaces/inkscape"
   xmlns:sodipodi="http://sodipodi.sourceforge.net/DTD/sodipodi-0.dtd"
   xmlns="http://www.w3.org/2000/svg"
   xmlns:svg="http://www.w3.org/2000/svg">
  <sodipodi:namedview
     id="namedview23"
     pagecolor="#ffffff"
     bordercolor="#000000"
     borderopacity="0.25"
     inkscape:showpageshadow="2"
     inkscape:pageopacity="0.0"
     inkscape:pagecheckerboard="0"
     inkscape:deskcolor="#d1d1d1"
     inkscape:document-units="mm"
     showgrid="false"
     inkscape:zoom="0.917058"
     inkscape:cx="205.54861"
     inkscape:cy="394.74057"
     inkscape:window-width="1919"
     inkscape:window-height="1013"
     inkscape:window-x="1"
     inkscape:window-y="0"
     inkscape:window-maximized="1"
     inkscape:current-layer="text505" />
  <defs
     id="defs18" />
  <g
     inkscape:label="Capa 1"
     inkscape:groupmode="layer"
     id="layer1">
    <path
       id="path386"
       style="opacity:0.82;fill:#ff0000;stroke-width:0.221514"
       d="M 104.99979 33.305461 A 60.000006 60.000002 0 0 0 44.999837 93.305416 A 60.000006 60.000002 0 0 0 104.99979 153.30537 A 60.000006 60.000002 0 0 0 164.99975 93.305416 A 60.000006 60.000002 0 0 0 104.99979 33.305461 z M 104.99979 53.305273 C 127.09116 53.305273 144.99993 71.214045 144.99993 93.305416 C 144.99993 115.39679 127.09117 133.30556 104.99979 133.30556 C 82.908412 133.30556 65.000162 115.39678 65.000167 93.305416 C 65.000172 71.214058 82.908418 53.305273 104.99979 53.305273 z " />
    <path
       id="rect127"
       style="fill:#0000ff;stroke-width:0.264583"
       d="M 34.302232,83.972826 H 175.69736 V 102.63802 H 34.302232 Z" />
    <g
       aria-label="UNDERGROUND"
       transform="scale(0.7905472,1.2649466)"
       id="text505"
       style="font-size:15.875px;line-height:0.5;-inkscape-font-specification:'sans-serif, Normal';letter-spacing:3.96875px;word-spacing:0.00264583px;opacity:0.82;fill:#ffffff;stroke-width:0.334684"
       inkscape:label="text505">
      <path
         d="m 60.748236,75.437153 q 0,1.17475 -0.523875,2.12725 -0.508,0.936625 -1.55575,1.49225 -1.031875,0.53975 -2.619375,0.53975 -2.25425,0 -3.429,-1.143 -1.17475,-1.158875 -1.17475,-3.048 v -7.3025 h 2.397125 v 6.937375 q 0,1.397 0.5715,1.9685 0.5715,0.5715 1.698625,0.5715 1.17475,0 1.698625,-0.619125 0.53975,-0.619125 0.53975,-1.93675 v -6.9215 h 2.397125 z"
         style="font-weight:bold;-inkscape-font-specification:'sans-serif, Bold';fill:#ffffff"
         id="path528" />
      <path
         d="m 77.543995,79.437653 h -3.048 l -4.937125,-8.5725 h -0.0635 q 0.03175,0.809625 0.0635,1.61925 0.04762,0.809625 0.07937,1.61925 v 5.334 H 67.49512 v -11.33475 h 3.032125 l 4.92125,8.493125 h 0.04763 q -0.01588,-0.79375 -0.04763,-1.571625 -0.03175,-0.777875 -0.0635,-1.55575 v -5.36575 h 2.159 z"
         style="font-weight:bold;-inkscape-font-specification:'sans-serif, Bold';fill:#ffffff;fill-opacity:1"
         id="path530" />
      <path
         d="m 93.76824,73.659153 q 0,2.873375 -1.635125,4.333875 -1.61925,1.444625 -4.556125,1.444625 h -3.20675 v -11.33475 h 3.556 q 1.778,0 3.07975,0.635 1.317625,0.635 2.032,1.87325 0.73025,1.222375 0.73025,3.048 z m -2.492375,0.0635 q 0,-1.889125 -0.8255,-2.76225 -0.8255,-0.889 -2.397125,-0.889 h -1.285875 v 7.381875 h 1.031875 q 3.476625,0 3.476625,-3.730625 z"
         style="font-weight:bold;-inkscape-font-specification:'sans-serif, Bold';fill:#ffffff"
         id="path532" />
      <path
         d="m 106.61111,79.437653 h -6.52462 v -11.33475 h 6.52462 v 1.9685 h -4.1275 v 2.492375 h 3.84175 v 1.9685 h -3.84175 v 2.921 h 4.1275 z"
         style="font-weight:bold;-inkscape-font-specification:'sans-serif, Bold';fill:#ffffff"
         id="path534" />
      <path
         d="m 116.24723,68.102903 q 2.31775,0 3.41312,0.841375 1.11125,0.841375 1.11125,2.555875 0,0.777875 -0.30162,1.36525 -0.28575,0.5715 -0.77788,0.98425 -0.47625,0.396875 -1.03187,0.650875 l 3.33375,4.937125 h -2.667 l -2.69875,-4.34975 h -1.28588 v 4.34975 h -2.39712 v -11.33475 z m -0.17463,1.9685 h -0.73025 v 3.063875 h 0.77788 q 1.19062,0 1.69862,-0.396875 0.52388,-0.396875 0.52388,-1.17475 0,-0.809625 -0.55563,-1.143 -0.53975,-0.34925 -1.7145,-0.34925 z"
         style="font-weight:bold;-inkscape-font-specification:'sans-serif, Bold';fill:#ffffff;opacity:1"
         id="path536" />
      <path
         d="m 131.6936,73.071778 h 4.49263 v 5.87375 q -0.889,0.301625 -1.85738,0.47625 -0.9525,0.174625 -2.17487,0.174625 -2.54,0 -3.90525,-1.49225 -1.36525,-1.49225 -1.36525,-4.34975 0,-1.778 0.68262,-3.07975 0.6985,-1.30175 2.01613,-2.016125 1.31762,-0.714375 3.22262,-0.714375 0.90488,0 1.778,0.1905 0.87313,0.1905 1.5875,0.508 l -0.79375,1.920875 q -0.52387,-0.269875 -1.19062,-0.4445 -0.66675,-0.174625 -1.397,-0.174625 -1.04775,0 -1.82563,0.47625 -0.762,0.47625 -1.19062,1.349375 -0.41275,0.85725 -0.41275,2.032 0,1.11125 0.30162,1.9685 0.30163,0.85725 0.9525,1.349375 0.65088,0.47625 1.69863,0.47625 0.508,0 0.85725,-0.04762 0.36512,-0.04763 0.66675,-0.111125 v -2.365375 h -2.14313 z"
         style="font-weight:bold;-inkscape-font-specification:'sans-serif, Bold';fill:#ffffff;opacity:1"
         id="path538" />
      <path
         d="m 146.15574,68.102903 q 2.31775,0 3.41313,0.841375 1.11125,0.841375 1.11125,2.555875 0,0.777875 -0.30163,1.36525 -0.28575,0.5715 -0.77787,0.98425 -0.47625,0.396875 -1.03188,0.650875 l 3.33375,4.937125 h -2.667 l -2.69875,-4.34975 h -1.28587 v 4.34975 h -2.39713 v -11.33475 z m -0.17462,1.9685 h -0.73025 v 3.063875 h 0.77787 q 1.19063,0 1.69863,-0.396875 0.52387,-0.396875 0.52387,-1.17475 0,-0.809625 -0.55562,-1.143 -0.53975,-0.34925 -1.7145,-0.34925 z"
         style="font-weight:bold;-inkscape-font-specification:'sans-serif, Bold';fill:#ffffff"
         id="path540" />
      <path
         d="m 167.58698,73.754403 q 0,1.762125 -0.58737,3.07975 -0.5715,1.30175 -1.76213,2.032 -1.19062,0.73025 -3.048,0.73025 -1.8415,0 -3.048,-0.73025 -1.19062,-0.73025 -1.778,-2.047875 -0.5715,-1.317625 -0.5715,-3.07975 0,-1.762125 0.5715,-3.063875 0.58738,-1.30175 1.778,-2.016125 1.2065,-0.73025 3.06388,-0.73025 1.8415,0 3.03212,0.73025 1.19063,0.714375 1.76213,2.032 0.58737,1.30175 0.58737,3.063875 z m -8.27087,0 q 0,1.778 0.68262,2.809875 0.68263,1.016 2.19075,1.016 1.53988,0 2.20663,-1.016 0.66675,-1.031875 0.66675,-2.809875 0,-1.793875 -0.66675,-2.809875 -0.66675,-1.016 -2.19075,-1.016 -1.524,0 -2.20663,1.016 -0.68262,1.016 -0.68262,2.809875 z"
         style="font-weight:bold;-inkscape-font-specification:'sans-serif, Bold';fill:#ffffff"
         id="path542" />
      <path
         d="m 183.12861,75.437153 q 0,1.17475 -0.52388,2.12725 -0.508,0.936625 -1.55575,1.49225 -1.03187,0.53975 -2.61937,0.53975 -2.25425,0 -3.429,-1.143 -1.17475,-1.158875 -1.17475,-3.048 v -7.3025 h 2.39712 v 6.937375 q 0,1.397 0.5715,1.9685 0.5715,0.5715 1.69863,0.5715 1.17475,0 1.69862,-0.619125 0.53975,-0.619125 0.53975,-1.93675 v -6.9215 h 2.39713 z"
         style="font-weight:bold;-inkscape-font-specification:'sans-serif, Bold';fill:#ffffff"
         id="path544" />
      <path
         d="m 199.92437,79.437653 h -3.048 l -4.93713,-8.5725 h -0.0635 q 0.0317,0.809625 0.0635,1.61925 0.0476,0.809625 0.0794,1.61925 v 5.334 h -2.14313 v -11.33475 h 3.03213 l 4.92125,8.493125 h 0.0476 q -0.0159,-0.79375 -0.0476,-1.571625 -0.0317,-0.777875 -0.0635,-1.55575 v -5.36575 h 2.159 z"
         style="font-weight:bold;-inkscape-font-specification:'sans-serif, Bold';fill:#ffffff"
         id="path546" />
      <path
         d="m 216.14862,73.659153 q 0,2.873375 -1.63513,4.333875 -1.61925,1.444625 -4.55612,1.444625 h -3.20675 v -11.33475 h 3.556 q 1.778,0 3.07975,0.635 1.31762,0.635 2.032,1.87325 0.73025,1.222375 0.73025,3.048 z m -2.49238,0.0635 q 0,-1.889125 -0.8255,-2.76225 -0.8255,-0.889 -2.39712,-0.889 h -1.28588 v 7.381875 h 1.03188 q 3.47662,0 3.47662,-3.730625 z"
         style="font-weight:bold;-inkscape-font-specification:'sans-serif, Bold';fill:#ffffff"
         id="path548" />
    </g>
  </g>
</svg>
